<svg xmlns="http://www.w3.org/2000/svg" xmlns:xlink="http://www.w3.org/1999/xlink" width="220" zoomAndPan="magnify" height="90" preserveAspectRatio="xMidYMid meet" version="1.0" style=""><rect id="backgroundrect" width="100%" height="100%" x="0" y="0" fill="none" stroke="none" class="" style=""/><defs><g id="svg_1"/></defs><g class="currentLayer" style=""><title>Layer 1</title><g fill="#e4e2dd" fill-opacity="1" id="svg_2" class=""><g id="svg_3"><g id="svg_4"><path d="M39.9114807844162,23.849195957183838 L39.9114807844162,59.19294595718384 L55.1302307844162,59.19294595718384 L55.1302307844162,68.03669595718384 L29.8489807844162,68.03669595718384 L29.8489807844162,23.849195957183838 zM39.9114807844162,23.849195957183838 " id="svg_5"/></g></g></g><g fill="#e4e2dd" fill-opacity="1" id="svg_6" class=""><g id="svg_7"><g id="svg_8"><path d="M56.45965278148651,25.239820957183838 C57.56121478148651,24.13825795718384 58.88152778148652,23.583570957183838 60.41277778148651,23.583570957183838 C61.95184078148651,23.583570957183838 63.27605878148651,24.13825795718384 64.38152778148651,25.239820957183838 C65.49480878148651,26.345289957183837 66.05340278148651,27.66950795718384 66.05340278148651,29.208570957183838 C66.05340278148651,30.739820957183838 65.49480878148651,32.06403995718384 64.38152778148651,33.17732095718384 C63.27605878148651,34.28278995718384 61.95184078148651,34.83357095718384 60.41277778148651,34.83357095718384 C58.88152778148652,34.83357095718384 57.56121478148651,34.28278995718384 56.45965278148651,33.17732095718384 C55.35418378148651,32.06403995718384 54.80340278148652,30.739820957183838 54.80340278148652,29.208570957183838 C54.80340278148652,27.66950795718384 55.35418378148651,26.345289957183837 56.45965278148651,25.239820957183838 zM55.55340278148652,40.552320957183845 L55.55340278148652,68.03669595718384 L65.02215278148651,68.03669595718384 L65.02215278148651,40.552320957183845 zM55.55340278148652,40.552320957183845 " id="svg_9"/></g></g></g><g fill="#e4e2dd" fill-opacity="1" id="svg_10" class=""><g id="svg_11"><g id="svg_12"><path d="M68.78258979320526,40.552320957183845 L68.78258979320526,34.72419595718384 C68.81383979320526,30.622633957183837 69.77087079320526,27.341383957183837 71.65758979320526,24.880445957183838 C73.55212079320526,22.411695957183838 76.18102679320526,21.177320957183838 79.54821479320526,21.177320957183838 C80.97399579320526,21.177320957183838 82.33727679320526,21.380445957183838 83.64196479320526,21.786695957183838 C84.94274579320526,22.192945957183838 85.88024579320526,22.610914957183837 86.45446479320526,23.036695957183838 L87.36071479320526,23.630445957183838 L84.03258979320526,30.333570957183838 C83.17712079320526,29.833570957183838 82.23571479320526,29.583570957183838 81.20446479320526,29.583570957183838 C80.02477679320526,29.583570957183838 79.23962079320526,29.985914957183837 78.84508979320526,30.786695957183838 C78.44665279320526,31.591383957183837 78.25133979320526,32.98982095718384 78.25133979320526,34.98982095718384 L78.25133979320526,40.552320957183845 L84.57946479320526,40.552320957183845 L84.57946479320526,47.78669595718384 L78.25133979320526,47.78669595718384 L78.25133979320526,68.03669595718384 L68.78258979320526,68.03669595718384 L68.78258979320526,47.78669595718384 L64.81383979320526,47.78669595718384 L64.81383979320526,40.552320957183845 zM68.78258979320526,40.552320957183845 " id="svg_13"/></g></g></g><g fill="#e4e2dd" fill-opacity="1" id="svg_14" class=""><g id="svg_15"><g id="svg_16"><path d="M110.49931037425995,55.614820957183845 L90.57743537425995,55.614820957183845 C90.57743537425995,57.544507957183846 91.20243537425995,58.97028995718384 92.45243537425995,59.89607095718384 C93.70243537425995,60.825757957183846 95.05399737425995,61.28669595718384 96.51493537425995,61.28669595718384 C98.05399737425995,61.28669595718384 99.26884137425995,61.08357095718384 100.15556037425995,60.67732095718384 C101.05009137425995,60.26325795718384 102.06962337425995,59.45075795718384 103.21806037425995,58.23982095718384 L110.06181037425995,61.66169595718384 C107.20634137425995,66.44294595718384 102.46024737425995,68.83357095718384 95.82743537425995,68.83357095718384 C91.67899737425995,68.83357095718384 88.12431037425995,67.41950795718384 85.15556037425995,64.58357095718384 C82.19462337425995,61.73982095718384 80.71806037425995,58.31794595718384 80.71806037425995,54.31794595718384 C80.71806037425995,50.31794595718384 82.19462337425995,46.89216495718384 85.15556037425995,44.03669595718384 C88.12431037425995,41.18513395718384 91.67899737425995,39.75544595718384 95.82743537425995,39.75544595718384 C100.17899737425995,39.75544595718384 103.72196637425995,41.01716495718384 106.45243537425995,43.53669595718384 C109.17899737425995,46.04841495718384 110.54618537425995,49.64216495718384 110.54618537425995,54.31794595718384 C110.54618537425995,54.96638395718384 110.53056037425995,55.39607095718384 110.49931037425995,55.614820957183845 zM90.84306037425995,50.36482095718384 L101.28056037425995,50.36482095718384 C101.06962337425995,48.93903995718384 100.50712337425995,47.84138395718384 99.59306037425995,47.06794595718384 C98.68681037425995,46.29841495718384 97.51884137425995,45.91169595718384 96.09306037425995,45.91169595718384 C94.51884137425995,45.91169595718384 93.26884137425995,46.32575795718384 92.34306037425995,47.14607095718384 C91.41337337425995,47.97028995718384 90.91337337425995,49.044507957183846 90.84306037425995,50.36482095718384 zM90.84306037425995,50.36482095718384 " id="svg_17"/></g></g></g><g fill="#e4e2dd" fill-opacity="1" id="svg_18" class=""><g id="svg_19"><g id="svg_20"><path d="M107.64501655101776,32.69294595718384 L107.64501655101776,23.849195957183838 L138.72314155101776,23.849195957183838 L138.72314155101776,32.69294595718384 L128.22314155101776,32.69294595718384 L128.22314155101776,68.03669595718384 L118.14501655101776,68.03669595718384 L118.14501655101776,32.69294595718384 zM107.64501655101776,32.69294595718384 " id="svg_21"/></g></g></g><g fill="#e4e2dd" fill-opacity="1" id="svg_22" class=""><g id="svg_23"><g id="svg_24"><path d="M139.66584479808807,64.63044595718384 C137.10334479808807,61.82966495718384 135.82209479808807,58.39607095718384 135.82209479808807,54.33357095718384 C135.82209479808807,50.26325795718384 137.10334479808807,46.81403995718384 139.66584479808807,43.98982095718384 C142.23615779808807,41.169507957183846 145.50959479808807,39.75544595718384 149.47834479808807,39.75544595718384 C153.12287579808807,39.75544595718384 156.12287579808807,40.89607095718384 158.47834479808807,43.17732095718384 L158.47834479808807,40.552320957183845 L167.96271979808807,40.552320957183845 L167.96271979808807,68.03669595718384 L158.58771979808807,68.03669595718384 L158.58771979808807,64.92732095718384 L158.47834479808807,64.92732095718384 C156.12287579808807,67.53278995718384 153.12287579808807,68.83357095718384 149.47834479808807,68.83357095718384 C145.50959479808807,68.83357095718384 142.23615779808807,67.43513395718384 139.66584479808807,64.63044595718384 zM147.72834479808807,49.67732095718384 C146.49787579808807,50.888257957183846 145.88459479808807,52.43903995718384 145.88459479808807,54.33357095718384 C145.88459479808807,56.22028995718384 146.47053179808807,57.76325795718384 147.65021979808807,58.95857095718384 C148.83771979808807,60.15778995718384 150.39240779808807,60.75544595718384 152.32209479808807,60.75544595718384 C154.17365779808807,60.75544595718384 155.70100079808807,60.15388395718384 156.90021979808807,58.94294595718384 C158.09553179808807,57.72419595718384 158.69709479808807,56.18513395718384 158.69709479808807,54.31794595718384 C158.69709479808807,52.43513395718384 158.07600079808807,50.888257957183846 156.83771979808807,49.67732095718384 C155.60725079808807,48.458570957183845 154.10334479808807,47.84919595718384 152.32209479808807,47.84919595718384 C150.49787579808807,47.84919595718384 148.96662579808807,48.458570957183845 147.72834479808807,49.67732095718384 zM147.72834479808807,49.67732095718384 " id="svg_25"/></g></g></g><g fill="#e4e2dd" fill-opacity="1" id="svg_26" class=""><g id="svg_27"><g id="svg_28"><path d="M170.73646247386932,25.239820957183838 C171.83802447386932,24.13825795718384 173.15833747386932,23.583570957183838 174.68958747386932,23.583570957183838 C176.22865047386932,23.583570957183838 177.55286847386932,24.13825795718384 178.65833747386932,25.239820957183838 C179.77161847386935,26.345289957183837 180.33021247386932,27.66950795718384 180.33021247386932,29.208570957183838 C180.33021247386932,30.739820957183838 179.77161847386935,32.06403995718384 178.65833747386932,33.17732095718384 C177.55286847386932,34.28278995718384 176.22865047386932,34.83357095718384 174.68958747386932,34.83357095718384 C173.15833747386932,34.83357095718384 171.83802447386932,34.28278995718384 170.73646247386932,33.17732095718384 C169.63099347386932,32.06403995718384 169.08021247386932,30.739820957183838 169.08021247386932,29.208570957183838 C169.08021247386932,27.66950795718384 169.63099347386932,26.345289957183837 170.73646247386932,25.239820957183838 zM169.83021247386932,40.552320957183845 L169.83021247386932,68.03669595718384 L179.29896247386932,68.03669595718384 L179.29896247386932,40.552320957183845 zM169.83021247386932,40.552320957183845 " id="svg_29"/></g></g></g><g fill="#e4e2dd" fill-opacity="1" id="svg_30" class=""><g id="svg_31"><g id="svg_32"><path d="M181.45002448558807,68.03669595718384 L181.45002448558807,21.974195957183838 L190.91877448558807,21.974195957183838 L190.91877448558807,68.03669595718384 zM181.45002448558807,68.03669595718384 " id="svg_33"/></g></g></g><path stroke-linecap="butt" fill="none" stroke-linejoin="miter" d="M12.344632834886255,79.71314834390259 L75.66885563716124,79.71314834390259 " stroke="#e4e2dd" stroke-width="10" stroke-opacity="1" stroke-miterlimit="4" id="svg_34" class=""/><path stroke-linecap="butt" fill="none" stroke-linejoin="miter" d="M17.220669377189623,19.36939890890261 L17.220669377189623,81.2170595939026 " stroke="#e4e2dd" stroke-width="10" stroke-opacity="1" stroke-miterlimit="4" id="svg_35" class=""/><path stroke-linecap="butt" fill="none" stroke-linejoin="miter" d="M207.518581782218,11.529554843902588 L144.19435886721803,11.529554843902588 " stroke="#e4e2dd" stroke-width="10" stroke-opacity="1" stroke-miterlimit="4" id="svg_36" class=""/><path stroke-linecap="butt" fill="none" stroke-linejoin="miter" d="M202.64254487718966,71.87330480640259 L202.64254487718966,10.02564459390257 " stroke="#e4e2dd" stroke-width="10" stroke-opacity="1" stroke-miterlimit="4" id="svg_37" class=""/></g></svg>