<svg xmlns="http://www.w3.org/2000/svg" xmlns:xlink="http://www.w3.org/1999/xlink" width="220" zoomAndPan="magnify" height="90" preserveAspectRatio="xMidYMid meet" version="1.0" style=""><rect id="backgroundrect" width="100%" height="100%" x="0" y="0" fill="none" stroke="none" class="" style=""/><defs><g id="svg_1"/></defs><g class="currentLayer" style=""><title>Layer 1</title><g fill="#000000" fill-opacity="1" id="svg_2" class=""><g id="svg_3"><g id="svg_4"><path d="M40.174964010715485,22.719223201274872 L40.174964010715485,58.06297320127487 L55.393714010715485,58.06297320127487 L55.393714010715485,66.90672320127487 L30.112464010715485,66.90672320127487 L30.112464010715485,22.719223201274872 zM40.174964010715485,22.719223201274872 " id="svg_5"/></g></g></g><g fill="#000000" fill-opacity="1" id="svg_6" class=""><g id="svg_7"><g id="svg_8"><path d="M56.7231360077858,24.109848201274872 C57.8246980077858,23.008285201274873 59.1450110077858,22.453598201274872 60.6762610077858,22.453598201274872 C62.215324007785796,22.453598201274872 63.5395420077858,23.008285201274873 64.6450110077858,24.109848201274872 C65.7582920077858,25.21531720127487 66.3168860077858,26.539535201274873 66.3168860077858,28.078598201274872 C66.3168860077858,29.609848201274872 65.7582920077858,30.93406720127487 64.6450110077858,32.04734820127487 C63.5395420077858,33.15281720127487 62.215324007785796,33.70359820127487 60.6762610077858,33.70359820127487 C59.1450110077858,33.70359820127487 57.8246980077858,33.15281720127487 56.7231360077858,32.04734820127487 C55.6176670077858,30.93406720127487 55.0668860077858,29.609848201274872 55.0668860077858,28.078598201274872 C55.0668860077858,26.539535201274873 55.6176670077858,25.21531720127487 56.7231360077858,24.109848201274872 zM55.8168860077858,39.42234820127487 L55.8168860077858,66.90672320127487 L65.2856360077858,66.90672320127487 L65.2856360077858,39.42234820127487 zM55.8168860077858,39.42234820127487 " id="svg_9"/></g></g></g><g fill="#000000" fill-opacity="1" id="svg_10" class=""><g id="svg_11"><g id="svg_12"><path d="M69.04607301950455,39.42234820127487 L69.04607301950455,33.59422320127487 C69.07732301950455,29.49266120127487 70.03435401950455,26.21141120127487 71.92107301950455,23.750473201274872 C73.81560401950455,21.281723201274872 76.44451001950455,20.047348201274872 79.81169801950455,20.047348201274872 C81.23747901950455,20.047348201274872 82.60076001950455,20.250473201274872 83.90544801950455,20.656723201274872 C85.20622901950455,21.062973201274872 86.14372901950455,21.48094220127487 86.71794801950455,21.906723201274872 L87.62419801950455,22.500473201274872 L84.29607301950455,29.203598201274872 C83.44060401950455,28.703598201274872 82.49919801950455,28.453598201274872 81.46794801950455,28.453598201274872 C80.28826001950455,28.453598201274872 79.50310401950455,28.85594220127487 79.10857301950455,29.656723201274872 C78.71013601950455,30.46141120127487 78.51482301950455,31.859848201274872 78.51482301950455,33.85984820127487 L78.51482301950455,39.42234820127487 L84.84294801950455,39.42234820127487 L84.84294801950455,46.65672320127487 L78.51482301950455,46.65672320127487 L78.51482301950455,66.90672320127487 L69.04607301950455,66.90672320127487 L69.04607301950455,46.65672320127487 L65.07732301950455,46.65672320127487 L65.07732301950455,39.42234820127487 zM69.04607301950455,39.42234820127487 " id="svg_13"/></g></g></g><g fill="#000000" fill-opacity="1" id="svg_14" class=""><g id="svg_15"><g id="svg_16"><path d="M110.76279360055923,54.48484820127487 L90.84091860055923,54.48484820127487 C90.84091860055923,56.41453520127487 91.46591860055923,57.84031720127487 92.71591860055923,58.76609820127487 C93.96591860055923,59.69578520127487 95.31748060055924,60.15672320127487 96.77841860055923,60.15672320127487 C98.31748060055924,60.15672320127487 99.53232460055924,59.95359820127487 100.41904360055923,59.54734820127487 C101.31357460055924,59.13328520127487 102.33310660055923,58.32078520127487 103.48154360055923,57.10984820127487 L110.32529360055923,60.53172320127487 C107.46982460055924,65.31297320127487 102.72373060055924,67.70359820127487 96.09091860055923,67.70359820127487 C91.94248060055924,67.70359820127487 88.38779360055923,66.28953520127487 85.41904360055923,63.45359820127487 C82.45810660055923,60.60984820127487 80.98154360055923,57.18797320127487 80.98154360055923,53.18797320127487 C80.98154360055923,49.18797320127487 82.45810660055923,45.76219220127487 85.41904360055923,42.90672320127487 C88.38779360055923,40.05516120127487 91.94248060055924,38.62547320127487 96.09091860055923,38.62547320127487 C100.44248060055924,38.62547320127487 103.98544960055924,39.88719220127487 106.71591860055923,42.40672320127487 C109.44248060055924,44.91844220127487 110.80966860055923,48.51219220127487 110.80966860055923,53.18797320127487 C110.80966860055923,53.83641120127487 110.79404360055923,54.26609820127487 110.76279360055923,54.48484820127487 zM91.10654360055923,49.23484820127487 L101.54404360055923,49.23484820127487 C101.33310660055923,47.80906720127487 100.77060660055923,46.71141120127487 99.85654360055923,45.93797320127487 C98.95029360055923,45.16844220127487 97.78232460055924,44.78172320127487 96.35654360055923,44.78172320127487 C94.78232460055924,44.78172320127487 93.53232460055924,45.19578520127487 92.60654360055923,46.01609820127487 C91.67685660055923,46.84031720127487 91.17685660055923,47.91453520127487 91.10654360055923,49.23484820127487 zM91.10654360055923,49.23484820127487 " id="svg_17"/></g></g></g><g fill="#000000" fill-opacity="1" id="svg_18" class=""><g id="svg_19"><g id="svg_20"><path d="M107.90849977731705,31.562973201274872 L107.90849977731705,22.719223201274872 L138.98662477731705,22.719223201274872 L138.98662477731705,31.562973201274872 L128.48662477731705,31.562973201274872 L128.48662477731705,66.90672320127487 L118.40849977731705,66.90672320127487 L118.40849977731705,31.562973201274872 zM107.90849977731705,31.562973201274872 " id="svg_21"/></g></g></g><g fill="#000000" fill-opacity="1" id="svg_22" class=""><g id="svg_23"><g id="svg_24"><path d="M139.92932802438736,63.50047320127487 C137.36682802438736,60.69969220127487 136.08557802438736,57.26609820127487 136.08557802438736,53.20359820127487 C136.08557802438736,49.13328520127487 137.36682802438736,45.68406720127487 139.92932802438736,42.85984820127487 C142.49964102438736,40.03953520127487 145.77307802438736,38.62547320127487 149.74182802438736,38.62547320127487 C153.38635902438736,38.62547320127487 156.38635902438736,39.76609820127487 158.74182802438736,42.04734820127487 L158.74182802438736,39.42234820127487 L168.22620302438736,39.42234820127487 L168.22620302438736,66.90672320127487 L158.85120302438736,66.90672320127487 L158.85120302438736,63.79734820127487 L158.74182802438736,63.79734820127487 C156.38635902438736,66.40281720127487 153.38635902438736,67.70359820127487 149.74182802438736,67.70359820127487 C145.77307802438736,67.70359820127487 142.49964102438736,66.30516120127487 139.92932802438736,63.50047320127487 zM147.99182802438736,48.54734820127487 C146.76135902438736,49.75828520127487 146.14807802438736,51.30906720127487 146.14807802438736,53.20359820127487 C146.14807802438736,55.09031720127487 146.73401502438736,56.63328520127487 147.91370302438736,57.82859820127487 C149.10120302438736,59.02781720127487 150.65589102438736,59.62547320127487 152.58557802438736,59.62547320127487 C154.43714102438736,59.62547320127487 155.96448402438736,59.02391120127487 157.16370302438736,57.81297320127487 C158.35901502438736,56.59422320127487 158.96057802438736,55.05516120127487 158.96057802438736,53.18797320127487 C158.96057802438736,51.30516120127487 158.33948402438736,49.75828520127487 157.10120302438736,48.54734820127487 C155.87073402438736,47.32859820127487 154.36682802438736,46.71922320127487 152.58557802438736,46.71922320127487 C150.76135902438736,46.71922320127487 149.23010902438736,47.32859820127487 147.99182802438736,48.54734820127487 zM147.99182802438736,48.54734820127487 " id="svg_25"/></g></g></g><g fill="#000000" fill-opacity="1" id="svg_26" class=""><g id="svg_27"><g id="svg_28"><path d="M170.9999457001686,24.109848201274872 C172.1015077001686,23.008285201274873 173.4218207001686,22.453598201274872 174.9530707001686,22.453598201274872 C176.4921337001686,22.453598201274872 177.8163517001686,23.008285201274873 178.9218207001686,24.109848201274872 C180.03510170016864,25.21531720127487 180.5936957001686,26.539535201274873 180.5936957001686,28.078598201274872 C180.5936957001686,29.609848201274872 180.03510170016864,30.93406720127487 178.9218207001686,32.04734820127487 C177.8163517001686,33.15281720127487 176.4921337001686,33.70359820127487 174.9530707001686,33.70359820127487 C173.4218207001686,33.70359820127487 172.1015077001686,33.15281720127487 170.9999457001686,32.04734820127487 C169.8944767001686,30.93406720127487 169.3436957001686,29.609848201274872 169.3436957001686,28.078598201274872 C169.3436957001686,26.539535201274873 169.8944767001686,25.21531720127487 170.9999457001686,24.109848201274872 zM170.0936957001686,39.42234820127487 L170.0936957001686,66.90672320127487 L179.5624457001686,66.90672320127487 L179.5624457001686,39.42234820127487 zM170.0936957001686,39.42234820127487 " id="svg_29"/></g></g></g><g fill="#000000" fill-opacity="1" id="svg_30" class=""><g id="svg_31"><g id="svg_32"><path d="M181.71350771188736,66.90672320127487 L181.71350771188736,20.844223201274872 L191.18225771188736,20.844223201274872 L191.18225771188736,66.90672320127487 zM181.71350771188736,66.90672320127487 " id="svg_33"/></g></g></g><path stroke-linecap="butt" fill="none" stroke-linejoin="miter" d="M12.608116061185541,78.58320660557175 L75.93233886346053,78.58320660557175 " stroke="#292929" stroke-width="10" stroke-opacity="1" stroke-miterlimit="4" id="svg_34" class=""/><path stroke-linecap="butt" fill="none" stroke-linejoin="miter" d="M17.48415260348891,18.239456070571748 L17.48415260348891,80.08711660557174 " stroke="#292929" stroke-width="10" stroke-opacity="1" stroke-miterlimit="4" id="svg_35" class=""/><path stroke-linecap="butt" fill="none" stroke-linejoin="miter" d="M207.7820650085173,10.399612355571747 L144.4578420935173,10.399612355571747 " stroke="#292929" stroke-width="10" stroke-opacity="1" stroke-miterlimit="4" id="svg_36" class=""/><path stroke-linecap="butt" fill="none" stroke-linejoin="miter" d="M202.90602810348895,70.74336256807175 L202.90602810348895,8.895702355571729 " stroke="#292929" stroke-width="10" stroke-opacity="1" stroke-miterlimit="4" id="svg_37" class=""/></g></svg>