<svg width="40" height="40" xmlns="http://www.w3.org/2000/svg" xml:space="preserve" version="1.1">

 <g>
  <title>Layer 1</title>
  <path stroke="null" id="svg_1" fill="#231F20" d="m32.93103,18.36207l-10.86207,0l0,-11.22414c0,-1.17586 -0.93103,-2.13793 -2.06897,-2.13793s-2.06897,0.96207 -2.06897,2.13793l0,11.22414l-10.86207,0c-1.13793,0 -2.06897,0.96207 -2.06897,2.13793s0.93103,2.13793 2.06897,2.13793l10.86207,0l0,11.22414c0,1.17586 0.93103,2.13793 2.06897,2.13793s2.06897,-0.96207 2.06897,-2.13793l0,-11.22414l10.86207,0c1.13793,0 2.06897,-0.96207 2.06897,-2.13793s-0.93103,-2.13793 -2.06897,-2.13793z" class="st0"/>
 </g>
</svg>